# xmcd CD database file
#
# Track frame offsets:
#	150
#	22207
#	43975
#	61462
#	81437
#	105700
#	132750
#	163307
#
# Disc length: 2432 seconds
#
# Revision: 2
# Processed by: cddbd v1.5.2PL0 Copyright (c) Steve Scherf et al.
# Submitted via: CDex 1.70beta3
#
DISCID=74097e08
DTITLE=The Staple Singers - Let's Do It Again
DYEAR=1900
DGENRE=Soul
TTITLE0=Let's Do It Again
TTITLE1=Funky Love
TTITLE2=A Whole Lot Of Love
TTITLE3=New Orleans
TTITLE4=I Want To Thank You
TTITLE5=Big Mac
TTITLE6=After Sex
TTITLE7=Chase
EXTD=
EXTT0=
EXTT1=
EXTT2=
EXTT3=
EXTT4=
EXTT5=
EXTT6=
EXTT7=
PLAYORDER=
